<?xml version="1.0" standalone="no"?><!-- Generator: Gravit.io --><svg xmlns="http://www.w3.org/2000/svg" xmlns:xlink="http://www.w3.org/1999/xlink" style="isolation:isolate" viewBox="105 139 384 563" width="384" height="563"><defs><clipPath id="_clipPath_c7z6lPdJWjCnqL4aoXZXKkq1n4oSQPBT"><rect width="595.276" height="841.89"/></clipPath></defs><g clip-path="url(#_clipPath_c7z6lPdJWjCnqL4aoXZXKkq1n4oSQPBT)"><g><path d=" M 354.556 538.449 C 312.309 483.087 237.289 437.733 217.775 383.644 C 176.433 269.049 292.233 135.426 421.355 168.4 C 284.734 94.124 132.563 175.155 110.747 324.734 C 88.883 474.646 152.57 578.944 185.966 623.275 C 214.255 660.827 308.348 728.401 362.325 690.049 C 406.418 658.72 398.45 595.971 354.556 538.449 Z " fill="rgb(0,0,0)" vector-effect="non-scaling-stroke" stroke-width="1" stroke="rgb(0,0,0)" stroke-linejoin="miter" stroke-linecap="square" stroke-miterlimit="3"/></g><g><path d=" M 299.419 214.354 Q 299.419 214.354 299.419 214.354 C 315.805 214.354 329.108 227.657 329.108 244.043 C 329.108 260.429 303.68 277.468 287.294 277.468 C 307.788 259.934 310.141 237.069 299.419 214.354 Q 299.419 214.354 299.419 214.354 Z " fill="rgb(0,0,0)"/></g><path d=" M 357.52 144.434 C 381.092 166.938 392.412 189.922 391.45 213.354 C 381.095 264.558 342.237 314.766 274.816 363.919 C 362.03 335.772 424.969 298.461 463.591 251.939 C 473.74 239.714 482.21 226.852 488.999 213.354 C 453.656 169.881 409.839 146.918 357.52 144.434 Z " fill="rgb(255,153,0)"/><path d=" M 422.647 172.609 C 433.596 183.225 456.512 206.837 453.747 219.734 C 452.711 244.705 423.25 271.002 396.08 297.4 C 430.569 275.579 461.372 233.007 463.591 217.067 C 464.511 210.453 445.209 183.564 422.647 172.609 Z " fill="rgb(255,255,255)"/></g></svg>